<?xml version="1.0" standalone="no"?>
<!DOCTYPE svg PUBLIC "-//W3C//DTD SVG 20010904//EN"
 "http://www.w3.org/TR/2001/REC-SVG-20010904/DTD/svg10.dtd">
<svg version="1.0" xmlns="http://www.w3.org/2000/svg"
 width="318.000000pt" height="318.000000pt" viewBox="0 0 318.000000 318.000000"
 preserveAspectRatio="xMidYMid meet">
<metadata>
Created by potrace 1.11, written by Peter Selinger 2001-2013
</metadata>
<g transform="translate(0.000000,318.000000) scale(0.100000,-0.100000)"
fill="#000000" stroke="none">
<path d="M1130 2775 l0 -305 670 0 670 0 0 -670 0 -670 310 0 310 0 0 975 0
975 -980 0 -980 0 0 -305z"/>
<path d="M70 1275 l0 -1205 1205 0 1205 0 0 115 0 115 -1090 0 -1090 0 0 1090
0 1090 -115 0 -115 0 0 -1205z"/>
<path d="M742 1569 c-61 -31 -94 -90 -100 -183 -5 -80 8 -138 40 -186 59 -86
209 -104 293 -36 l30 24 -34 36 c-31 32 -36 34 -51 21 -9 -8 -30 -20 -48 -26
-36 -12 -89 7 -110 42 -20 31 -26 120 -13 162 24 72 100 99 155 56 l27 -22 35
34 c19 18 34 36 34 41 0 4 -20 19 -43 33 -58 33 -152 35 -215 4z"/>
<path d="M1154 1572 c-73 -46 -98 -109 -92 -233 6 -136 44 -189 152 -211 71
-15 149 2 197 42 l34 29 -35 29 -35 30 -30 -22 c-21 -14 -45 -21 -78 -21 -42
0 -52 4 -78 33 -16 18 -29 43 -29 57 l0 25 146 0 147 0 -5 63 c-6 75 -36 137
-80 169 -46 32 -168 38 -214 10z m144 -78 c22 -15 52 -63 52 -84 0 -6 -35 -10
-95 -10 -92 0 -95 1 -95 23 0 65 84 109 138 71z"/>
<path d="M1611 1573 c-90 -45 -97 -187 -10 -234 11 -5 53 -14 94 -18 83 -10
105 -22 105 -57 0 -56 -127 -72 -192 -24 l-30 22 -31 -30 c-37 -37 -32 -54 25
-83 34 -18 60 -23 128 -23 139 -1 200 44 200 149 0 86 -38 117 -160 131 -36 3
-73 11 -82 16 -25 12 -22 54 4 72 28 20 65 20 124 0 46 -16 46 -16 75 12 33
32 30 40 -25 65 -54 24 -177 26 -225 2z"/>
<path d="M2000 1360 l0 -230 50 0 50 0 0 230 0 230 -50 0 -50 0 0 -230z"/>
</g>
</svg>
