<svg version="1" xmlns="http://www.w3.org/2000/svg" width="424" height="424" viewBox="0 0 318.000000 318.000000"><path d="M113 40.5V71h134v134h62V10H113v30.5zM7 190.5V311h241v-23H30V70H7v120.5z"/><path d="M74.2 161.1c-6.1 3.1-9.4 9-10 18.3-.5 8 .8 13.8 4 18.6 5.9 8.6 20.9 10.4 29.3 3.6l3-2.4-3.4-3.6c-3.1-3.2-3.6-3.4-5.1-2.1-.9.8-3 2-4.8 2.6-3.6 1.2-8.9-.7-11-4.2-2-3.1-2.6-12-1.3-16.2 2.4-7.2 10-9.9 15.5-5.6l2.7 2.2 3.5-3.4c1.9-1.8 3.4-3.6 3.4-4.1 0-.4-2-1.9-4.3-3.3-5.8-3.3-15.2-3.5-21.5-.4zM115.4 160.8c-7.3 4.6-9.8 10.9-9.2 23.3.6 13.6 4.4 18.9 15.2 21.1 7.1 1.5 14.9-.2 19.7-4.2l3.4-2.9-3.5-2.9-3.5-3-3 2.2c-2.1 1.4-4.5 2.1-7.8 2.1-4.2 0-5.2-.4-7.8-3.3-1.6-1.8-2.9-4.3-2.9-5.7V185H145.3l-.5-6.3c-.6-7.5-3.6-13.7-8-16.9-4.6-3.2-16.8-3.8-21.4-1zm14.4 7.8c2.2 1.5 5.2 6.3 5.2 8.4 0 .6-3.5 1-9.5 1-9.2 0-9.5-.1-9.5-2.3 0-6.5 8.4-10.9 13.8-7.1zM161.1 160.7c-9 4.5-9.7 18.7-1 23.4 1.1.5 5.3 1.4 9.4 1.8 8.3 1 10.5 2.2 10.5 5.7 0 5.6-12.7 7.2-19.2 2.4l-3-2.2-3.1 3c-3.7 3.7-3.2 5.4 2.5 8.3 3.4 1.8 6 2.3 12.8 2.3 13.9.1 20-4.4 20-14.9 0-8.6-3.8-11.7-16-13.1-3.6-.3-7.3-1.1-8.2-1.6-2.5-1.2-2.2-5.4.4-7.2 2.8-2 6.5-2 12.4 0 4.6 1.6 4.6 1.6 7.5-1.2 3.3-3.2 3-4-2.5-6.5-5.4-2.4-17.7-2.6-22.5-.2zM200 182v23h10v-46h-10v23z"/></svg>